<svg width="1678" height="874" viewBox="0 0 1678 874" fill="none" xmlns="http://www.w3.org/2000/svg">
<path opacity="0.24" fill-rule="evenodd" clip-rule="evenodd" d="M-1016 -1048L2375 -1048V-1050L-1016 -1050V-1048ZM2375 -875.965L-1016 -875.965V-877.965L2375 -877.965V-875.965ZM-1016 -703.93L2375 -703.93V-705.93L-1016 -705.93V-703.93ZM2375 -531.896L-1016 -531.896V-533.896L2375 -533.896V-531.896ZM-1016 -359.86L2375 -359.86V-361.86L-1016 -361.86V-359.86ZM-727.364 1016.42V1154.05H-725.364V1016.42H-555.329V1154.05H-553.329V1016.42H-383.294V1154.05H-381.294V1016.42H-211.259V1154.05H-209.259V1016.42H-39.2239V1154.05H-37.2239V1016.42H132.811V1154.05H134.811V1016.42H304.846V1154.05H306.846V1016.42H476.881V1154.05H478.881V1016.42H648.916V1154.05H650.916V1016.42H820.951V1154.05H822.951V1016.42H992.986V1154.05H994.986V1016.42H1165.02V1154.05H1167.02V1016.42H1337.06V1154.05H1339.06V1016.42H1509.09V1154.05H1511.09V1016.42H1681.13V1154.05H1683.13V1016.42H1853.16V1154.05H1855.16V1016.42H2025.2V1154.05H2027.2V1016.42H2197.23V1154.05H2199.23V1016.42H2375V1014.42H2199.23V844.384H2375V842.384H2199.23V672.349H2375V670.349H2199.23V500.314H2375V498.314H2199.23V328.28H2375V326.28H2199.23V156.245H2375V154.245H2199.23V-15.7905H2375V-17.7905H2199.23L2199.23 -187.825H2375V-189.825H2199.23V-325.453H2197.23V-189.825H2027.2V-325.453H2025.2V-189.825H1855.16V-325.453H1853.16V-189.825H1683.13V-325.453H1681.13V-189.825L1511.09 -189.826V-325.453H1509.09V-189.826H1339.06V-325.453H1337.06V-189.826H1167.02V-325.453H1165.02V-189.826H994.986V-325.453H992.986V-189.826H822.951V-325.453H820.951V-189.826H650.916V-325.453H648.916V-189.826H478.881V-325.453H476.881V-189.826H306.846V-325.453H304.846V-189.826H134.811V-325.453H132.811V-189.826H-37.2238V-325.453H-39.2238V-189.826L-209.259 -189.826V-325.453H-211.259V-189.826H-381.294V-325.453H-383.294V-189.826H-553.329V-325.453H-555.329V-189.826H-725.364V-325.453H-727.364V-189.826H-1016V-187.826H-727.364L-727.364 -17.7906H-1016V-15.7906H-727.364V154.244H-1016V156.244H-727.364L-727.364 326.279H-1016V328.279H-727.364V498.314H-1016V500.314H-727.364V670.349H-1016V672.349H-727.364V842.384H-1016V844.384H-727.364V1014.42H-1016V1016.42H-727.364ZM2027.2 -187.825H2197.23L2197.23 -17.7905H2027.2L2027.2 -187.825ZM1855.16 -187.825H2025.2L2025.2 -17.7905H1855.16L1855.16 -187.825ZM1683.13 -187.825H1853.16L1853.16 -17.7905H1683.13L1683.13 -187.825ZM1511.09 -187.826L1681.13 -187.825L1681.13 -17.7905H1511.09V-187.826ZM1339.06 -187.826H1509.09V-17.7905H1339.06V-187.826ZM1167.02 -187.826H1337.06V-17.7905H1167.02V-187.826ZM994.986 -187.826H1165.02V-17.7905H994.986L994.986 -187.826ZM822.951 -187.826H992.986L992.986 -17.7905H822.951L822.951 -187.826ZM650.916 -187.826H820.951L820.951 -17.7905L650.916 -17.7906L650.916 -187.826ZM478.881 -187.826H648.916L648.916 -17.7906H478.881L478.881 -187.826ZM306.846 -187.826H476.881L476.881 -17.7906H306.846L306.846 -187.826ZM134.811 -187.826H304.846L304.846 -17.7906H134.811L134.811 -187.826ZM-37.2238 -187.826H132.811L132.811 -17.7906H-37.2239L-37.2238 -187.826ZM-209.259 -187.826L-39.2238 -187.826L-39.2239 -17.7906H-209.259L-209.259 -187.826ZM-381.294 -187.826H-211.259L-211.259 -17.7906H-381.294L-381.294 -187.826ZM-553.329 -187.826H-383.294L-383.294 -17.7906H-553.329L-553.329 -187.826ZM-725.364 -187.826H-555.329L-555.329 -17.7906H-725.364L-725.364 -187.826ZM-725.364 -15.7906V154.244H-555.329V-15.7906H-725.364ZM-553.329 -15.7906V154.244H-383.294V-15.7906H-553.329ZM-381.294 -15.7906V154.244H-211.259V-15.7906H-381.294ZM-209.259 -15.7906V154.244H-39.2239V-15.7906H-209.259ZM-37.2239 -15.7906V154.244H132.811V-15.7906H-37.2239ZM134.811 -15.7906V154.244H304.846V-15.7906H134.811ZM306.846 -15.7906V154.244H476.881V-15.7906H306.846ZM478.881 -15.7906V154.244H648.916V-15.7906H478.881ZM650.916 -15.7906V154.244L820.951 154.245V-15.7905L650.916 -15.7906ZM822.951 -15.7905V154.245H992.986V-15.7905H822.951ZM994.986 -15.7905V154.245H1165.02V-15.7905H994.986ZM1167.02 -15.7905V154.245H1337.06V-15.7905H1167.02ZM1339.06 -15.7905V154.245H1509.09V-15.7905H1339.06ZM1511.09 -15.7905V154.245H1681.13V-15.7905H1511.09ZM1683.13 -15.7905V154.245H1853.16V-15.7905H1683.13ZM1855.16 -15.7905V154.245H2025.2V-15.7905H1855.16ZM2027.2 -15.7905V154.245H2197.23V-15.7905H2027.2ZM2027.2 156.245H2197.23V326.28H2027.2V156.245ZM1855.16 156.245H2025.2V326.28H1855.16V156.245ZM1683.13 156.245H1853.16V326.28H1683.13V156.245ZM1511.09 156.245H1681.13V326.28H1511.09V156.245ZM1339.06 156.245H1509.09V326.28H1339.06V156.245ZM1167.02 156.245H1337.06V326.28H1167.02V156.245ZM994.986 156.245H1165.02V326.28H994.986V156.245ZM822.951 156.245H992.986V326.28H822.951V156.245ZM650.916 156.244L820.951 156.245V326.28L650.916 326.279V156.244ZM478.881 156.244H648.916V326.279H478.881V156.244ZM306.846 156.244H476.881V326.279H306.846V156.244ZM134.811 156.244H304.846V326.279H134.811V156.244ZM-37.2239 156.244H132.811V326.279H-37.2239V156.244ZM-209.259 156.244H-39.2239V326.279H-209.259V156.244ZM-381.294 156.244H-211.259V326.279H-381.294V156.244ZM-553.329 156.244H-383.294V326.279H-553.329L-553.329 156.244ZM-725.364 156.244H-555.329L-555.329 326.279H-725.364L-725.364 156.244ZM-725.364 328.279V498.314H-555.329V328.279H-725.364ZM-553.329 328.279V498.314H-383.294V328.279H-553.329ZM-381.294 328.279V498.314H-211.259V328.279H-381.294ZM-209.259 328.279V498.314H-39.2239V328.279H-209.259ZM-37.2239 328.279V498.314H132.811V328.279H-37.2239ZM134.811 328.279V498.314H304.846V328.279H134.811ZM306.846 328.279V498.314H476.881V328.279H306.846ZM478.881 328.279V498.314H648.916V328.279H478.881ZM650.916 328.279V498.314L820.951 498.314V328.28L650.916 328.279ZM822.951 328.28V498.314H992.986V328.28H822.951ZM994.986 328.28V498.314H1165.02V328.28H994.986ZM1167.02 328.28V498.314H1337.06V328.28H1167.02ZM1339.06 328.28V498.314H1509.09V328.28H1339.06ZM1511.09 328.28V498.314H1681.13V328.28H1511.09ZM1683.13 328.28V498.314H1853.16V328.28H1683.13ZM1855.16 328.28V498.314H2025.2V328.28H1855.16ZM2027.2 328.28V498.314H2197.23V328.28H2027.2ZM2027.2 500.314H2197.23V670.349H2027.2V500.314ZM1855.16 500.314H2025.2V670.349H1855.16V500.314ZM1683.13 500.314H1853.16V670.349H1683.13V500.314ZM1511.09 500.314H1681.13V670.349H1511.09V500.314ZM1339.06 500.314H1509.09V670.349H1339.06V500.314ZM1167.02 500.314H1337.06V670.349H1167.02V500.314ZM994.986 500.314H1165.02V670.349H994.986V500.314ZM822.951 500.314H992.986V670.349H822.951V500.314ZM650.916 500.314L820.951 500.314V670.349L650.916 670.349V500.314ZM478.881 500.314H648.916V670.349H478.881V500.314ZM306.846 500.314H476.881V670.349H306.846V500.314ZM134.811 500.314H304.846V670.349H134.811V500.314ZM-37.2239 500.314H132.811V670.349H-37.2239V500.314ZM-209.259 500.314H-39.2239V670.349H-209.259V500.314ZM-381.294 500.314H-211.259V670.349H-381.294V500.314ZM-553.329 500.314H-383.294V670.349H-553.329V500.314ZM-725.364 500.314H-555.329V670.349H-725.364V500.314ZM-725.364 672.349V842.384H-555.329V672.349H-725.364ZM-553.329 672.349V842.384H-383.294V672.349H-553.329ZM-381.294 672.349V842.384H-211.259V672.349H-381.294ZM-209.259 672.349V842.384H-39.2239V672.349H-209.259ZM-37.2239 672.349V842.384H132.811V672.349H-37.2239ZM134.811 672.349V842.384H304.846V672.349H134.811ZM306.846 672.349V842.384H476.881V672.349H306.846ZM478.881 672.349V842.384H648.916V672.349H478.881ZM650.916 672.349V842.384L820.951 842.384V672.349L650.916 672.349ZM822.951 672.349V842.384H992.986V672.349H822.951ZM994.986 672.349V842.384H1165.02V672.349H994.986ZM1167.02 672.349V842.384H1337.06V672.349H1167.02ZM1339.06 672.349V842.384H1509.09V672.349H1339.06ZM1511.09 672.349V842.384H1681.13V672.349H1511.09ZM1683.13 672.349V842.384H1853.16V672.349H1683.13ZM1855.16 672.349V842.384H2025.2V672.349H1855.16ZM2027.2 672.349V842.384H2197.23V672.349H2027.2ZM2027.2 844.384H2197.23V1014.42H2027.2V844.384ZM1855.16 844.384H2025.2V1014.42H1855.16V844.384ZM1683.13 844.384H1853.16V1014.42H1683.13V844.384ZM1511.09 844.384H1681.13V1014.42H1511.09V844.384ZM1339.06 844.384H1509.09V1014.42H1339.06V844.384ZM1167.02 844.384H1337.06V1014.42H1167.02V844.384ZM994.986 844.384H1165.02V1014.42H994.986V844.384ZM822.951 844.384H992.986V1014.42H822.951V844.384ZM650.916 844.384L820.951 844.384V1014.42H650.916V844.384ZM478.881 844.384H648.916V1014.42H478.881V844.384ZM306.846 844.384H476.881V1014.42H306.846V844.384ZM134.811 844.384H304.846V1014.42H134.811V844.384ZM-37.2239 844.384H132.811V1014.42H-37.2239V844.384ZM-209.259 844.384H-39.2239V1014.42H-209.259V844.384ZM-381.294 844.384H-211.259V1014.42H-381.294V844.384ZM-553.329 844.384H-383.294V1014.42H-553.329V844.384ZM-725.364 844.384H-555.329V1014.42H-725.364V844.384ZM2375 1876.59L-1016 1876.59V1874.59L2375 1874.59V1876.59ZM-1016 1704.56H2375V1702.56H-1016V1704.56ZM2375 1532.52H-1016V1530.52H2375V1532.52ZM-1016 1360.49L2375 1360.49V1358.49L-1016 1358.49V1360.49ZM2375 1188.45L-1016 1188.45V1186.45L2375 1186.45V1188.45Z" fill="url(#paint0_radial_22_162)"/>
<defs>
<radialGradient id="paint0_radial_22_162" cx="0" cy="0" r="1" gradientUnits="userSpaceOnUse" gradientTransform="translate(816 498.461) rotate(90) scale(1197.04 1601.13)">
<stop stop-color="#907FF3" stop-opacity="0"/>
<stop offset="1" stop-color="#8F81F3" stop-opacity="0.6"/>
</radialGradient>
</defs>
</svg>
