<svg width="25" height="25" viewBox="0 0 25 25" fill="none" xmlns="http://www.w3.org/2000/svg">
<g id="mouse">
<g id="vuesax/linear/mouse">
<g id="mouse_2">
<path id="Vector" d="M12.6348 22.8177C16.7648 22.8177 20.1348 19.4477 20.1348 15.3177V10.3177C20.1348 6.18775 16.7648 2.81775 12.6348 2.81775C8.50477 2.81775 5.13477 6.18775 5.13477 10.3177V15.3177C5.13477 19.4477 8.50477 22.8177 12.6348 22.8177Z" stroke="white" stroke-width="1.5" stroke-linecap="round" stroke-linejoin="round"/>
<path id="Vector_2" d="M12.6348 11.8177C11.8048 11.8177 11.1348 11.1477 11.1348 10.3177V8.31775C11.1348 7.48775 11.8048 6.81775 12.6348 6.81775C13.4548 6.81775 14.1348 7.48775 14.1348 8.31775V10.3177C14.1348 11.1477 13.4548 11.8177 12.6348 11.8177Z" stroke="white" stroke-width="1.5" stroke-linecap="round" stroke-linejoin="round"/>
<path id="Vector_3" d="M12.6348 6.81775V2.81775" stroke="white" stroke-width="1.5" stroke-linecap="round" stroke-linejoin="round"/>
</g>
</g>
</g>
</svg>
